<svg id="Layer_1" enable-background="new 0 0 512 512" height="512" viewBox="0 0 512 512" width="512" xmlns="http://www.w3.org/2000/svg"><path d="m510.023 248.558-55.015-96.277c-8.372-14.648-24.052-23.748-40.923-23.748h-366.952c-26.031 0-47.133 21.103-47.133 47.134v160.667c0 26.031 21.102 47.133 47.133 47.133h366.953c16.871 0 32.551-9.1 40.923-23.749l55.015-96.276c2.635-4.611 2.635-10.272-.001-14.884zm-398.623-7.558c8.284 0 15 6.716 15 15s-6.716 15-15 15h-17.133v18.2h33.2c8.284 0 15 6.716 15 15s-6.716 15-15 15h-48.2c-8.284 0-15-6.716-15-15v-96.4c0-8.284 6.716-15 15-15h48.2c8.284 0 15 6.716 15 15s-6.716 15-15 15h-33.2v18.2zm141.014 54.88c4.595 6.893 2.732 16.206-4.161 20.801-6.892 4.594-16.206 2.732-20.801-4.161l-19.652-29.478-19.652 29.479c-4.596 6.894-13.909 8.756-20.801 4.161-6.893-4.595-8.756-13.909-4.161-20.801l26.586-39.881-26.586-39.88c-4.595-6.893-2.732-16.206 4.161-20.801 6.893-4.596 16.205-2.733 20.801 4.161l19.652 29.479 19.652-29.479c4.596-6.893 13.909-8.754 20.801-4.161 6.893 4.595 8.755 13.909 4.161 20.801l-26.586 39.88zm50.72 8.32c0 8.284-6.716 15-15 15s-15-6.716-15-15v-96.4c0-8.284 6.716-15 15-15s15 6.716 15 15zm97.466-81.4h-17.133v81.4c0 8.284-6.716 15-15 15s-15-6.716-15-15v-81.4h-17.134c-8.284 0-15-6.716-15-15s6.716-15 15-15h64.267c8.284 0 15 6.716 15 15s-6.716 15-15 15z"/></svg>