<svg height="512" viewBox="0 0 60 60" width="512" xmlns="http://www.w3.org/2000/svg"><g id="HDMI" fill="#231f20"><path d="m12 21h2v10h-2z"/><path d="m17 21h2v10h-2z"/><path d="m13 25h5v2h-5z"/><path d="m25 31h-3a1 1 0 0 1 -1-1v-8a1 1 0 0 1 1-1h3a3.16 3.16 0 0 1 3 3v4a3.16 3.16 0 0 1 -3 3zm-2-2h2a1.171 1.171 0 0 0 1-1v-4a1.171 1.171 0 0 0 -1-1h-2z"/><path d="m40 31h-2v-8h-.279l-1.773 5.316a1 1 0 0 1 -1.9 0l-1.769-5.316h-.279v8h-2v-9a1 1 0 0 1 1-1h2a1 1 0 0 1 .948.684l1.052 3.154 1.052-3.154a1 1 0 0 1 .948-.684h2a1 1 0 0 1 1 1z"/><path d="m44 22h2v8h-2z"/><path d="m50 43h-39a1.006 1.006 0 0 1 -.641-.231l-6-5a1 1 0 0 1 -.359-.769v-2h-3a1 1 0 0 1 -1-1v-16a1 1 0 0 1 1-1h58a1 1 0 0 1 1 1v16a1 1 0 0 1 -1 1h-3v2a1 1 0 0 1 -.293.707l-5 5a1 1 0 0 1 -.707.293zm-38.638-2h38.224l4.414-4.414v-2.586a1 1 0 0 1 1-1h3v-14h-56v14h3a1 1 0 0 1 1 1v2.531z"/><path d="m42 21h6v2h-6z"/><path d="m42 29h6v2h-6z"/><path d="m22 43h-6a1 1 0 0 1 -1-1v-6a1 1 0 0 1 1-1h6a1 1 0 0 1 1 1v6a1 1 0 0 1 -1 1zm-5-2h4v-4h-4z"/><path d="m45 43h-6a1 1 0 0 1 -1-1v-6a1 1 0 0 1 1-1h6a1 1 0 0 1 1 1v6a1 1 0 0 1 -1 1zm-5-2h4v-4h-4z"/><path d="m33 43h-5a1 1 0 0 1 -1-1v-6a1 1 0 0 1 1-1h5a1 1 0 0 1 1 1v6a1 1 0 0 1 -1 1zm-4-2h3v-4h-3z"/><path d="m51 42h-2v-5h-37v5h-2v-6a1 1 0 0 1 1-1h39a1 1 0 0 1 1 1z"/></g></svg>